<?xml version="1.0" encoding="utf-8"?>
<!-- Generator: Adobe Illustrator 25.3.1, SVG Export Plug-In . SVG Version: 6.00 Build 0)  -->
<svg version="1.1" id="Layer_1" xmlns="http://www.w3.org/2000/svg" xmlns:xlink="http://www.w3.org/1999/xlink" x="0px" y="0px"
	 viewBox="0 0 1350 1350" style="enable-background:new 0 0 1350 1350;" xml:space="preserve">
<style type="text/css">
	.st0{fill:#4A9AA3;}
	.st1{fill:#FCCCAF;}
	.st2{fill:#182D38;}
	.st3{fill:#D86B6A;}
	.st4{fill:#DBF0EE;}
	.st5{fill:#FFFFFF;}
	.st6{fill:#FFF8E9;}
</style>
<g>
	<g>
		<path d="M345.4,955.4C177,955.4,40,818.4,40,650V148.4C40,118.9,63.9,95,93.3,95s53.4,23.9,53.4,53.4V650
			c0,109.5,89.1,198.7,198.6,198.7c29.5,0,53.4,23.9,53.4,53.4S374.9,955.4,345.4,955.4z"/>
	</g>
	<g>
		<path d="M774.6,422.4c-2.7-27-25.4-48-53.1-48c-27.5,0-50.4,21.1-53.1,48c1.9-27.8,25.1-49.6,53.1-49.6
			C749.8,372.7,772.7,394.6,774.6,422.4z"/>
	</g>
	<g>
		<path d="M774.9,427.7V996c0,142.8-116.1,259.2-258.9,259.2c-86,0-166.3-43-214.9-114.5c-16.6-24.3-10.1-57.7,14.4-74.2
			c24.3-16.5,57.7-10.1,74.2,14.4c28.6,42.2,75.8,67.5,126.3,67.5c83.8,0,152.1-68.3,152.1-152.4V792.6c-21.6,9.3-45.6,14.7-71,14.7
			c-98.2,0-178-79.8-178-177.8c0-1.1,0-2.4,0.3-3.5c-0.3-1.1-0.3-2.4-0.3-3.5V427.7c0-29.4,24-53.4,53.4-53.4
			c29.6,0,53.4,24,53.4,53.4v194.9c0,1.1,0,2.4-0.3,3.5c0.3,1.1,0.3,2.4,0.3,3.5c0,39.2,32,71,71.3,71c39.2,0,71-31.8,71-71V427.7
			c0-1.9,0-3.7,0.3-5.3c2.7-27,25.6-48,53.1-48c27.8,0,50.4,21.1,53.1,48C774.9,424,774.9,425.8,774.9,427.7z"/>
	</g>
	<g>
		<path d="M1310,354v548c0,29.4-23.8,53.4-53.4,53.4h-205.8c-98.2,0-178-79.8-178-178c0-98,79.8-177.8,178-177.8
			c29.4,0,53.4,23.8,53.4,53.4c0,29.4-24,53.4-53.4,53.4c-39.2,0-71.3,31.8-71.3,71c0,39.2,32,71.3,71.3,71.3h152.4V354
			c0-84.1-68.3-152.4-152.1-152.4c-50.4,0-97.7,25.1-126.3,67.5c-16.5,24.3-49.9,30.7-74.2,14.1c-24.6-16.5-31-49.6-14.4-74.2
			c48.6-71.5,128.9-114.2,214.9-114.2C1193.9,94.8,1310,210.9,1310,354z"/>
	</g>
</g>
</svg>
