<?xml version="1.0" encoding="UTF-8" standalone="no"?>
<!-- Created with Inkscape (http://www.inkscape.org/) -->

<svg
   width="93.1315mm"
   height="85.113983mm"
   viewBox="0 0 93.1315 85.113983"
   version="1.1"
   id="svg5"
   xml:space="preserve"
   inkscape:version="1.2.1 (9c6d41e, 2022-07-14)"
   sodipodi:docname="lya dark.svg"
   xmlns:inkscape="http://www.inkscape.org/namespaces/inkscape"
   xmlns:sodipodi="http://sodipodi.sourceforge.net/DTD/sodipodi-0.dtd"
   xmlns="http://www.w3.org/2000/svg"
   xmlns:svg="http://www.w3.org/2000/svg"><sodipodi:namedview
     id="namedview7"
     pagecolor="#ffffff"
     bordercolor="#666666"
     borderopacity="1.0"
     inkscape:showpageshadow="2"
     inkscape:pageopacity="0.0"
     inkscape:pagecheckerboard="0"
     inkscape:deskcolor="#d1d1d1"
     inkscape:document-units="mm"
     showgrid="false"
     inkscape:zoom="1.0121971"
     inkscape:cx="238.09591"
     inkscape:cy="347.26437"
     inkscape:window-width="1178"
     inkscape:window-height="911"
     inkscape:window-x="0"
     inkscape:window-y="44"
     inkscape:window-maximized="0"
     inkscape:current-layer="layer1" /><defs
     id="defs2" /><g
     inkscape:label="Layer 1"
     inkscape:groupmode="layer"
     id="layer1"
     transform="translate(-105.69299,-39.275157)"><path
       style="fill:#ffffff;stroke-width:0.264583"
       d="m 135.95189,123.92424 c -3.9349,-1.09511 -7.42967,-3.33497 -9.92661,-6.36213 -0.785,-0.9517 -1.54148,-2.15446 -1.68105,-2.67281 -0.53979,-2.0046 0.73918,-4.14295 2.85756,-4.77763 1.64796,-0.49374 3.19994,0.17977 4.55748,1.97782 2.47002,3.27151 6.61659,4.99908 10.50717,4.37756 2.49651,-0.39882 4.73844,-1.54451 6.34365,-3.24179 2.95578,-3.12529 3.25088,-4.45528 3.25088,-14.651415 v -8.002466 l -1.12448,0.40826 c -1.59065,0.577506 -5.11618,0.766525 -6.84309,0.366885 -4.81399,-1.11405 -8.93088,-5.145694 -10.00153,-9.794452 -0.15942,-0.692177 -0.27651,-4.901293 -0.2797,-10.054167 -0.005,-8.384025 0.023,-8.910194 0.52028,-9.725856 1.55515,-2.55065 5.41837,-2.534812 6.82087,0.02796 0.39843,0.728059 0.47346,1.966113 0.5889,9.718069 l 0.13229,8.883717 0.71014,1.07225 c 2.31375,3.493535 8.07935,2.583865 9.20009,-1.451544 0.16087,-0.579226 0.27388,-4.368922 0.27475,-9.213075 0.001,-8.097131 0.011,-8.243128 0.59679,-9.103797 0.98169,-1.442402 1.9205,-1.984208 3.4,-1.962216 1.40993,0.02096 2.30217,0.513519 3.26438,1.802119 0.53911,0.721974 0.54641,0.985981 0.62192,22.473236 0.0511,14.538286 -0.0187,22.471872 -0.21067,23.943352 -0.55795,4.2772 -2.60896,8.24429 -5.84595,11.30729 -2.11854,2.00467 -4.269,3.31124 -6.98691,4.2451 -2.83074,0.97262 -8.01451,1.17026 -10.74716,0.40973 z m -12.13676,-21.86753 c -8.58311,-1.73543 -15.20256,-8.082379 -17.52177,-16.800472 -0.59657,-2.242547 -0.59828,-2.307026 -0.60023,-22.621875 -0.002,-19.898905 0.0104,-20.39382 0.52721,-21.271302 1.52374,-2.586899 4.83936,-2.810106 6.60607,-0.44472 0.52657,0.705003 0.5407,1.141931 0.68392,21.139828 0.15996,22.334737 0.0878,21.332074 1.77442,24.663832 1.55149,3.064883 4.5932,5.752574 7.91818,6.996613 0.79714,0.298246 2.50106,0.651076 3.7865,0.784066 2.74117,0.283599 3.70413,0.712838 4.50452,2.007891 0.47332,0.765855 0.56314,1.225841 0.46662,2.389699 -0.1281,1.54472 -0.74156,2.46858 -2.11303,3.18215 -0.8841,0.46 -3.6893,0.44804 -6.03241,-0.0257 z m 53.0803,0.10319 c -3.18763,-0.74835 -6.86714,-3.577244 -8.42315,-6.475927 -2.69132,-5.013624 -1.83905,-11.098474 2.1387,-15.269528 2.26869,-2.378937 4.87546,-3.662415 8.20307,-4.038891 2.9235,-0.330758 5.06271,1.31146 5.06051,3.88483 -0.002,2.25144 -1.39416,3.625662 -4.03974,3.987466 -1.91685,0.262147 -2.89576,0.789999 -4.00101,2.157426 -0.74982,0.927693 -0.8218,1.184302 -0.8218,2.92974 0,1.632569 0.1041,2.070298 0.71014,2.986095 0.42779,0.64643 1.17111,1.296249 1.86948,1.634323 1.0793,0.522484 1.58318,0.561221 7.30004,0.561221 h 6.14072 l -0.0727,-19.645313 -0.0727,-19.645313 -0.85115,-1.739281 c -1.07646,-2.19972 -3.17844,-4.221745 -5.56274,-5.351168 -1.64101,-0.777329 -2.00598,-0.847051 -4.43403,-0.847051 -2.51422,0 -2.74454,0.04853 -4.63021,0.975573 -2.16665,1.065187 -2.78235,1.557429 -4.34513,3.473879 -1.25997,1.545123 -2.14105,2.03284 -3.67239,2.03284 -1.41617,0 -2.70038,-0.798205 -3.39882,-2.112539 -0.91858,-1.728606 -0.55021,-3.153824 1.4466,-5.596859 2.25824,-2.76288 6.58116,-5.443526 10.23433,-6.346322 2.03676,-0.503339 6.86259,-0.441293 8.99583,0.115661 6.09919,1.592404 11.27089,6.407253 13.41016,12.48485 l 0.74505,2.116667 v 22.93124 22.931241 l -0.66146,0.70796 c -1.35786,1.45333 -1.35978,1.45358 -11.16551,1.42486 -4.99131,-0.0146 -9.53726,-0.13508 -10.10211,-0.26768 z"
       id="path886" /></g></svg>
